<svg height="512pt" viewBox="0 0 512 512" width="512pt" xmlns="http://www.w3.org/2000/svg"><path d="m197.0625 479.445312h117.878906c6.457032 0 11.710938-5.253906 11.710938-11.710937v-141.082031h141.082031c6.457031 0 11.710937-5.253906 11.710937-11.710938v-117.882812c0-6.457032-5.253906-11.710938-11.710937-11.710938h-141.082031v-141.082031c0-6.457031-5.253906-11.710937-11.710938-11.710937h-41.441406c-4.144531 0-7.5 3.359374-7.5 7.5 0 4.140624 3.355469 7.5 7.5 7.5h38.152344v141.082031c0 6.457031 5.253906 11.710937 11.710937 11.710937h141.082031v111.304688h-141.082031c-6.457031 0-11.710937 5.253906-11.710937 11.710937v141.082031h-111.304688v-141.082031c0-6.457031-5.253906-11.710937-11.710937-11.710937h-141.082031v-111.304688h141.082031c6.457031 0 11.710937-5.253906 11.710937-11.710937v-141.082031h38.152344c4.144531 0 7.5-3.359376 7.5-7.5 0-4.140626-3.355469-7.5-7.5-7.5h-41.4375c-6.460938 0-11.714844 5.253906-11.714844 11.710937v141.082031h-141.082031c-6.457031 0-11.710937 5.253906-11.710937 11.710938v117.882812c0 6.457032 5.253906 11.710938 11.710937 11.710938h141.082031v141.082031c0 6.457031 5.253906 11.710937 11.714844 11.710937zm0 0"/><path d="m467.734375 152.792969h-108.527344v-108.527344c0-24.40625-19.859375-44.265625-44.269531-44.265625h-117.875c-24.410156 0-44.269531 19.859375-44.269531 44.265625v108.527344h-108.527344c-24.410156 0-44.265625 19.859375-44.265625 44.265625v117.882812c0 24.40625 19.855469 44.265625 44.265625 44.265625h108.527344v108.527344c0 24.40625 19.859375 44.265625 44.269531 44.265625h117.875c24.410156 0 44.269531-19.859375 44.269531-44.265625v-108.527344h108.527344c24.40625 0 44.265625-19.859375 44.265625-44.265625v-41.441406c0-4.140625-3.355469-7.5-7.5-7.5s-7.5 3.359375-7.5 7.5v41.441406c0 16.136719-13.128906 29.265625-29.265625 29.265625h-111.816406c-6.457031 0-11.710938 5.253907-11.710938 11.710938v111.816406c0 16.136719-13.128906 29.265625-29.269531 29.265625h-117.875c-16.140625 0-29.269531-13.128906-29.269531-29.265625v-111.816406c0-6.457031-5.253907-11.710938-11.710938-11.710938h-111.816406c-16.136719 0-29.265625-13.128906-29.265625-29.265625v-117.882812c0-16.136719 13.128906-29.265625 29.265625-29.265625h111.816406c6.457031 0 11.710938-5.253907 11.710938-11.710938v-111.816406c0-16.136719 13.128906-29.265625 29.269531-29.265625h117.875c16.140625 0 29.269531 13.128906 29.269531 29.265625v111.816406c0 6.457031 5.253907 11.710938 11.710938 11.710938h111.816406c16.136719 0 29.265625 13.128906 29.265625 29.265625v41.441406c0 4.140625 3.355469 7.5 7.5 7.5s7.5-3.359375 7.5-7.5v-41.441406c0-24.40625-19.855469-44.265625-44.265625-44.265625zm0 0"/></svg>